<?xml version="1.0" encoding="utf-8"?>
<!-- Generator: Adobe Illustrator 24.2.3, SVG Export Plug-In . SVG Version: 6.00 Build 0)  -->
<svg version="1.1" id="Ebene_1" xmlns="http://www.w3.org/2000/svg" xmlns:xlink="http://www.w3.org/1999/xlink" x="0px" y="0px"
	 viewBox="0 0 701.3 180" style="enable-background:new 0 0 701.3 180;" xml:space="preserve">
<style type="text/css">
	.st0{fill:#FAD200;}
</style>
<g>
	<path class="st0" d="M175.8,153.8c0,11.9-9.8,21.7-21.7,21.7c-11.9,0-21.7-9.8-21.7-21.7c0-11.9,9.8-21.7,21.7-21.7
		C166,132.1,175.8,141.9,175.8,153.8 M175.8,25.9c0,11.9-9.8,21.7-21.7,21.7c-11.9,0-21.7-9.8-21.7-21.7s9.8-21.7,21.7-21.7
		C166,4.2,175.8,14,175.8,25.9 M175.8,89.8c0,11.9-9.8,21.7-21.7,21.7c-11.9,0-21.7-9.8-21.7-21.7S142.1,68,154.1,68
		C166,68,175.8,77.8,175.8,89.8 M109.9,153.8c0,11.9-9.8,21.7-21.7,21.7s-21.7-9.8-21.7-21.7c0-11.9,9.8-21.7,21.7-21.7
		S109.9,141.9,109.9,153.8 M109.9,25.9c0,11.9-9.8,21.7-21.7,21.7s-21.7-9.8-21.7-21.7S76.2,4.2,88.1,4.2S109.9,14,109.9,25.9
		 M109.9,89.8c0,11.9-9.8,21.7-21.7,21.7s-21.7-9.8-21.7-21.7S76.2,68,88.1,68S109.9,77.8,109.9,89.8 M43.7,153.8
		c0,11.9-9.8,21.7-21.7,21.7S0,166,0,153.8c0-11.9,9.8-21.7,21.7-21.7S43.7,141.9,43.7,153.8 M43.7,25.9c0,11.9-9.8,21.7-21.7,21.7
		S0,38.1,0,25.9C0,14,9.8,4.2,21.7,4.2S43.7,14,43.7,25.9 M43.7,89.8c0,11.9-9.8,21.7-21.7,21.7S0,102.2,0,89.8
		C0,77.8,9.8,68,21.7,68S43.7,77.8,43.7,89.8 M408.6,176h-47.9V79.7l-46.8,67.6l-46.8-67.3V176h-47.7V3.7h53.3L317,70.4l44.2-66.6
		h47.7L408.6,176L408.6,176z M507,180c-50,0-89.1-39.5-89.1-90.2C418,40.2,458.2,0,507.3,0c28.5,0,51,8.6,66.2,25.5l1.4,1.4
		L543,63.1l-1.6-1.9c-6.5-6.8-18.7-14-33.4-14c-21.7,0-39,18.5-39,42.1c0,24.1,17.5,42.3,41.1,42.3c11.9,0,24.3-5.4,31.1-13.8
		l1.6-2.1l31.8,35.3l-1.2,1.6C558.9,170.9,536.7,180,507,180 M701.3,176H584.9V3.7h116.4v45.1h-68.5v17.3h58v45.1h-58v19.6h68.5V176
		L701.3,176z"/>
</g>
</svg>
