<svg xmlns="http://www.w3.org/2000/svg" viewBox="0 0 420.5 210">
  <style>
    .st0{fill:#ffffff}.st4{display:inline;}
  </style>
  <g id="Logos">
    <path class="st0" d="M67.2 119.3c-6.5-5.6-15.1-8.5-25.6-8.5-23.3 0-37.2 12.5-37.2 33.5v29.4c0 20.7 12.8 33.1 34.2 33.1 9.2 0 16.4-2.9 22-8.3l4.9 6.5h11.6v-50.9H40.5v17.4h16v8.3c-3.4 4.9-9.7 8.1-16.2 8.1-9.9 0-15.3-5.1-15.3-14.3v-30c0-9 5.4-13.8 15.5-13.8 9.7 0 15.9 5.3 15.9 13.4v1.1H77v-1.1c.2-10.2-3.2-18.2-9.8-23.9zM160.7 141.6c0-18.1-9.9-28.9-29-28.9h-40V205H112v-34.5h11l25.7 34.5h11.8v-17.2l-14.6-19.7c9.2-4.8 14.8-14 14.8-26.5zm-32.5 12H112v-23.1h16.2c7.5 0 11.8 2.9 11.8 11.4 0 8.8-4.3 11.7-11.8 11.7zM389.2 112.7h-41.3V205h20.4v-34.6h20.9c16.6 0 26.3-11.2 26.3-28.8s-9.8-28.9-26.3-28.9zm-3.8 39.9h-17.1v-22.2h17.1c4.5 0 9.5 3.2 9.5 11.2-.1 8-5.1 11-9.5 11zM209.8 110.7c-22.5 0-36.9 12.2-36.9 33.4v29.3c0 21 14.5 33.2 36.9 33.2 22.5 0 36.9-12.2 36.9-33.2v-29.3c0-21.2-14.5-33.4-36.9-33.4zm16.5 63.6c0 6.7-4.9 13.7-16.6 13.7-11.7 0-16.6-7-16.6-13.7V143c0-6.7 4.9-13.7 16.6-13.7 11.7 0 16.6 7 16.6 13.7v31.3zM313.4 174.3c0 6.7-4.9 13.7-16.6 13.7-11.7 0-16.6-7-16.6-13.7v-61.6H260v60.7c0 21 14.5 33.2 36.9 33.2 22.5 0 36.9-12.2 36.9-33.2v-60.7h-20.4v61.6zM56.6 42.2H25.9V5H5.3v92.3h20.6V60.4h30.7v36.9h20.6V5H56.6zM117.7 5L86.2 79.8l-.1.2v17.3h15.8l7.9-18.8h34.4l7.9 18.8H168V80L136.5 5h-18.8zm-.3 55.3l9.6-23 9.6 23h-19.2zM246.6 70.9c0-9.9-4.2-17.2-12.4-21.4 5.9-4 8.8-10.2 8.8-18.4C243 14.6 232.9 5 215.2 5h-39.3v92.3h42.9c17.6 0 27.8-9.6 27.8-26.4zm-50.2-47.5h17.7c4.5.1 8.1 4.3 8.1 9.3 0 5-3.6 9.2-8.1 9.3h-17.7V23.4zm0 55.6V60.3H218c4.6 0 8.3 4.2 8.3 9.3 0 5.2-3.7 9.4-8.3 9.4h-21.6zM283.5 5L252 79.8l-.1.2v17.3h15.8l7.9-18.8H310l7.9 18.8h15.8V80L302.2 5h-18.7zm-.3 55.3l9.6-23 9.6 23h-19.2zM376.4 98.9c22.5 0 36.9-12.2 36.9-33.2V5h-20.4v61.6c0 6.7-4.9 13.7-16.6 13.7-11.7 0-16.6-7-16.6-13.7V5h-20.4v60.7c.2 21 14.6 33.2 37.1 33.2z"/>
  </g>
</svg>
